<svg xmlns="http://www.w3.org/2000/svg" width="170" height="104" viewBox="0 0 170 104">
  <defs>
    <linearGradient id="a" x1="139.809%" x2="249.024%" y1="-4.811%" y2="50%">
      <stop stop-color="#738EF5" offset="0%"/>
      <stop stop-color="#B3AEFF" offset="100%"/>
      <stop stop-color="#B3AEFF" offset="100%"/>
    </linearGradient>
    <linearGradient id="b" x1="-28.845%" x2="108.361%" y1="31.24%" y2="50%">
      <stop stop-color="#738EF5" offset="0%"/>
      <stop stop-color="#B3AEFF" offset="100%"/>
      <stop stop-color="#B3AEFF" offset="100%"/>
    </linearGradient>
    <linearGradient id="c" x1="0%" x2="91.868%" y1="50%" y2="50%">
      <stop stop-color="#738EF5" offset="0%"/>
      <stop stop-color="#B3AEFF" offset="100%"/>
      <stop stop-color="#B3AEFF" offset="100%"/>
    </linearGradient>
    <linearGradient id="d" x1="14.781%" x2="92.829%" y1="-5.324%" y2="96.364%">
      <stop stop-color="#738EF5" offset="0%"/>
      <stop stop-color="#B3AEFF" offset="100%"/>
      <stop stop-color="#B3AEFF" offset="100%"/>
    </linearGradient>
  </defs>
  <g fill="none" fill-rule="evenodd">
    <polygon fill="url(#a)" points="112.047 104 126.686 104 126.686 54.551 112.047 54.551"/>
    <polygon fill="#202225" points="92.34 104 112.047 104 112.047 0 92.34 0"/>
    <polygon fill="#FFFFFF" points="92.339 17.707 112.96 17.707 112.96 9.123 92.339 9.123"/>
    <polygon fill="#FFFFFF" points="92.339 94.877 112.047 94.877 112.047 86.293 92.339 86.293"/>
    <polygon fill="#202225" points="111.907 29.765 155.518 104 169.258 95.929 125.648 21.693"/>
    <polygon fill="url(#b)" points="166.509 91.249 152.769 99.32 150.682 95.768 164.421 87.696"/>
    <polygon fill="url(#c)" points="130.476 29.913 116.736 37.985 114.648 34.431 128.388 26.359"/>
    <polygon fill="url(#d)" points="0 104 92.34 104 92.34 0 0 0"/>
  </g>
</svg>
